<svg class="icon" style="width: 1em; height: 1em;vertical-align: middle;fill: currentColor;overflow: hidden;" viewBox="0 0 1024 1024" version="1.1" xmlns="http://www.w3.org/2000/svg" p-id="1496"><path d="M1021.6 164.48v706.56a22.016 22.016 0 0 1 0 3.84c-2.176 17.376-15.872 31.072-33.216 33.248H587.584v-107.52c0 0.64 0.544 1.248 1.248 1.248h346.688a9.216 9.216 0 0 0 9.472-8.672v-19.2a9.28 9.28 0 0 0-9.248-9.248h-348.16a1.28 1.28 0 0 0-1.28 1.28v-71.488c0 0.704 0.576 1.28 1.28 1.28h348.064a9.088 9.088 0 0 0 9.248-8.704v-19.744a9.28 9.28 0 0 0-9.28-9.248H587.616a1.472 1.472 0 0 0-1.28 1.504v-71.04c0.48 0.256 0.928 0.256 1.28 0h348.064a9.28 9.28 0 0 0 9.248-9.216v-18.848a9.28 9.28 0 0 0-9.28-9.248H587.616a1.472 1.472 0 0 0-1.28 1.504v-71.264c0 0.8 0.576 1.376 1.28 1.504h348.064a9.344 9.344 0 0 0 9.472-8.896v-19.424a9.28 9.28 0 0 0-9.28-9.248H587.616a1.472 1.472 0 0 0-1.28 1.504v-71.808c0 0.8 0.576 1.344 1.28 1.472h348.064a9.28 9.28 0 0 0 9.248-9.248v-19.2a9.28 9.28 0 0 0-9.28-9.216H587.616a1.28 1.28 0 0 0-1.28 1.248V268.736c0 0.672 0.576 1.248 1.28 1.248h348.064a9.28 9.28 0 0 0 9.248-9.248v-18.944a9.28 9.28 0 0 0-9.28-9.28H587.616a1.28 1.28 0 0 0-1.28 1.28v-107.52h401.408c19.168 2.72 33.792 18.944 33.92 38.24z" fill="#3396FB" p-id="1497"></path><path d="M543.392 1.6l-155.712 28.544L31.52 96.576a35.552 35.552 0 0 0-10.752 3.872 37.728 37.728 0 0 0-20.416 33.472v751.936a16.032 16.032 0 0 0 0 3.328c1.024 13.92 9.824 26.144 22.72 31.616a31.68 31.68 0 0 0 7.872 2.528l275.808 53.056 236.16 46.464a38.304 38.304 0 0 0 44.32-31.168c0.224-1.024 0.32-2.048 0.448-2.944a22.016 22.016 0 0 0 0-3.904V40.192A38.016 38.016 0 0 0 543.392 1.6z m-71.68 341.664l-45.44 204.224c-9.696 43.616-19.648 87.36-28.896 130.944-1.248 6.176-3.872 8.224-9.92 7.424a1276.16 1276.16 0 0 0-55.136-3.52c-5.376 0-7.424-2.528-8.448-7.68-15.648-76.224-31.52-152.832-47.488-229.76a11.168 11.168 0 0 0-3.104 7.168c-14.816 72.032-29.888 143.968-44.608 216 0 6.144-3.104 7.424-9.28 6.848-16.064-1.28-32.416-2.048-48.512-2.88-6.144 0-9.216-2.048-10.496-8.896-19.072-99.2-38.336-198.4-57.984-297.472-1.28-6.624 0-7.904 6.624-8.224 14.048 0 27.84-1.28 42.112-2.88 6.176 0 8.448 0 9.472 7.424 6.848 44.992 14.272 89.6 21.472 134.592 4.576 27.84 8.896 55.712 13.248 83.456a8 8 0 0 0 0 6.848c2.88 3.328 2.272 0 2.496-1.472 16-75.904 32-151.936 47.744-227.968 1.248-6.624 3.52-9.28 10.72-9.28 15.52 0 31.168-1.472 46.464-3.072 6.4 0 8.448 0 9.696 7.68 15.296 76.928 30.816 153.536 46.464 229.76 0 2.88 1.472 5.376 2.88 10.528 8.64-51.04 17.088-99.52 25.536-148.064 5.824-33.664 11.52-67.136 17.12-102.176 0-4.096 2.08-6.176 6.4-6.176 18.144 0 35.968-2.048 54.112-3.52 7.424 0.448 7.68 4.224 6.72 10.144z" fill="#3396FB" p-id="1498"></path></svg>