<svg class="icon" style="width: 1em; height: 1em;vertical-align: middle;fill: currentColor;overflow: hidden;" viewBox="0 0 1024 1024" version="1.1" xmlns="http://www.w3.org/2000/svg" p-id="2660"><path d="M0 0h1024v1024H0V0z" fill="#E56452" p-id="2661"></path><path d="M259.09248 838.48704c56.07936-37.3504 89.63584-104.58112 123.30496-160.66048 78.37184-22.41024 156.86656-44.81536 239.0272-52.29056 56.08448 22.41024 115.84 56.08448 183.07072 52.29056 44.81536 0 56.07936-82.16576 18.49344-97.10592-59.75552-18.73408-119.51104-11.264-179.27168-3.79392-48.49152-29.88032-85.84192-74.69568-112.04608-123.31008-11.14624-18.6112-26.19904-41.02144-22.40512-67.2256 7.46496-52.29056 14.94016-108.36992 14.94016-160.66048 0-14.94016-7.47008-33.55648-22.41024-44.82048-22.40512-11.14624-63.4368-3.67616-67.23072 26.19904-11.14624 74.7008 11.26912 145.72032 26.20416 212.95104-29.88032 74.69568-67.23072 145.59744-104.576 216.62208-7.47008 14.94016-18.73408 29.88032-33.67424 37.34528-55.96672 29.88032-115.72224 63.54944-141.9264 123.31008-14.92992 44.93824 48.61952 63.55456 78.49984 41.14944z m567.81312-201.68192c-41.1392 11.14624-85.95968-7.47008-123.31008-26.20416 41.14432 0 93.42976-11.14624 123.31008 26.20416z m-351.19104-440.832c29.99808 41.02144 26.19904 97.10592 7.46496 145.72032-11.264-48.60928-14.94016-97.10592-7.46496-145.72032z m3.79392 280.17152c22.40512 41.02144 56.07936 78.37184 93.312 115.72224-59.76064 11.264-115.72224 29.88032-171.8016 48.60928 29.8752-52.28032 56.07424-108.24192 78.4896-164.33152z m-171.80672 227.88608c-26.20416 41.02656-52.29056 82.16576-93.42976 112.04608 22.40512-41.1392 59.75552-78.4896 93.42976-112.04608z" fill="#FFFFFF" p-id="2662"></path></svg>