<svg class="icon" style="width: 1em; height: 1em;vertical-align: middle;fill: currentColor;overflow: hidden;" viewBox="0 0 1024 1024" version="1.1" xmlns="http://www.w3.org/2000/svg" p-id="2175"><path d="M944 944H80c-26.4 0-48-18.4-48-40.8V656h960v247.2c0 22.4-21.6 40.8-48 40.8z" fill="#5ACC9B" p-id="2176"></path><path d="M80 80h864c26.4 0 48 18.4 48 40.8V368H32V120.8C32 98.4 53.6 80 80 80z" fill="#6CCBFF" p-id="2177"></path><path d="M32 368h960v288H32z" fill="#FFD766" p-id="2178"></path><path d="M352 80h320v864H352z" fill="#FF5562" p-id="2179"></path><path d="M444 128h64v48h-64z m64-48h64v48h-64z m0 96h64v48h-64z m-64 48h64v48h-64z m64 48h64v48h-64z m-64 48h64v48h-64z m64 48h64v48h-64z m-64 48h64v48h-64z m64 48h64v48h-64z m-64 48h64v48h-64z m64 48h64v48h-64z m-64 48h64v48h-64z m64 48h64v48h-64z m-64 48h64v48h-64z m64 48h64v48h-64z m-64 48h64v48h-64z m0 96h64v48h-64z m64-48h64v48h-64z" fill="#FFFFFF" p-id="2180"></path></svg>